#N canvas 332 574 1540 726 10;
#X obj 304 186 r notesIn-\$1;
#X obj 304 491 s notesOut-\$1;
#X obj 181 9 r loadbang-\$1;
#X obj 25 186 inlet~ inL-\$1;
#X obj 135 186 inlet~ inR-\$1;
#X obj 27 491 outlet~ outL-\$1;
#X obj 136 491 outlet~ outR-\$1;
#X obj 424 185 r auxIn-\$1;
#X obj 423 208 r expIn-\$1;
#X obj 423 233 r fsIn-\$1;
#X obj 516 45 int 0;
#X obj 516 76 s aux-led-\$1;
#X obj 631 76 s aux-label-\$1;
#X obj 550 183 r knob1-\$1;
#X obj 1039 182 r activePage-\$1;
#X obj 1038 222 print activepage;
#X obj 1161 184 r enc-\$1;
#X obj 550 204 unpack s f;
#X obj 659 205 unpack s f;
#X obj 772 207 unpack s f;
#X obj 891 203 unpack s f;
#X obj 891 182 r knob4-\$1;
#X obj 772 186 r knob3-\$1;
#X obj 659 184 r knob2-\$1;
#X obj 540 234 s screenLine1;
#X obj 654 235 s screenLine2;
#X obj 767 236 s screenLine3;
#X obj 888 236 s screenLine4;
#X msg 631 44 custom test;
#N canvas 564 274 1996 1074 graphdemo 0;
#X obj 333 961 s oscOut;
#X msg 452 301 /oled/gCircle 3 64 32 20 1;
#X msg 453 245 /oled/gClear 3 1;
#X msg 454 441 /oled/gFlip 3;
#X msg 453 276 /oled/gSetPixel 3 120 50 1;
#X msg 455 331 /oled/gLine 3 20 30 115 78 1;
#X msg 455 365 /oled/gBox 3 10 10 10 50 1;
#X msg 453 395 /oled/gFillArea 3 30 10 50 3 1;
#X text 586 712 update display;
#X msg 465 711 /oled/gFlip 3;
#X msg 461 589 /oled/gClear 3 1;
#X obj 267 175 t b b b b b b b b b b;
#X obj 241 463 t b b b b b b b;
#X obj 54 14 inlet;
#X obj 62 87 i;
#X obj 62 108 change -1;
#X obj 62 65 * 2;
#X obj 131 165 route 0 1;
#X msg 465 638 /oled/gPrintln 3 0 10 16 1 Hola;
#X msg 464 663 /oled/gPrintln 3 0 28 24 1 Hi;
#X msg 463 687 /oled/gPrintln 3 50 28 32 1 Hello;
#X connect 1 0 0 0;
#X connect 2 0 0 0;
#X connect 3 0 0 0;
#X connect 4 0 0 0;
#X connect 5 0 0 0;
#X connect 6 0 0 0;
#X connect 7 0 0 0;
#X connect 9 0 0 0;
#X connect 10 0 0 0;
#X connect 11 1 3 0;
#X connect 11 3 7 0;
#X connect 11 4 6 0;
#X connect 11 5 5 0;
#X connect 11 6 1 0;
#X connect 11 7 4 0;
#X connect 11 8 2 0;
#X connect 12 1 9 0;
#X connect 12 2 20 0;
#X connect 12 3 19 0;
#X connect 12 4 18 0;
#X connect 12 6 10 0;
#X connect 13 0 16 0;
#X connect 14 0 15 0;
#X connect 15 0 17 0;
#X connect 16 0 14 0;
#X connect 17 0 11 0;
#X connect 17 1 12 0;
#X connect 17 2 12 0;
#X connect 18 0 0 0;
#X connect 19 0 0 0;
#X connect 20 0 0 0;
#X restore 545 486 pd graphdemo;
#X obj 1242 181 r activeModule;
#X obj 1242 202 route \$1;
#X msg 1238 262 /oled/gClear 3 1;
#X obj 1242 223 t b b;
#X msg 1233 286 /oled/gFlip 3;
#X obj 1149 227 s screenLine5;
#X connect 2 0 10 0;
#X connect 2 0 28 0;
#X connect 10 0 11 0;
#X connect 13 0 17 0;
#X connect 14 0 15 0;
#X connect 16 0 35 0;
#X connect 17 1 24 0;
#X connect 17 1 29 0;
#X connect 18 1 25 0;
#X connect 19 1 26 0;
#X connect 20 1 27 0;
#X connect 21 0 20 0;
#X connect 22 0 19 0;
#X connect 23 0 18 0;
#X connect 28 0 12 0;
#X connect 30 0 31 0;
#X connect 31 0 33 0;
#X connect 33 0 34 0;
#X connect 33 0 32 0;
#X connect 33 1 32 0;
