#N canvas 202 50 1517 962 10;
#X obj 52 148 throw~ outL;
#X obj 135 148 throw~ outR;
#X obj 249 69 r notes;
#X obj 243 148 s screenLine5;
#X obj 641 17 r loadbang-\$1;
#X obj 312 69 r aux;
#X obj 401 69 r fs;
#X obj 713 148 s screenLine4;
#X obj 509 148 s screenLine2;
#X obj 613 148 s screenLine3;
#X obj 417 148 s screenLine1;
#X obj 510 69 r knob2;
#X obj 571 69 r knob3;
#X obj 623 69 r knob4;
#X obj 445 69 r knob1;
#X obj 356 69 r exp;
#X obj 58 69 r~ inL;
#X obj 135 69 r~ inR;
#X connect 2 0 3 0;
#X connect 11 0 8 0;
#X connect 12 0 9 0;
#X connect 13 0 7 0;
#X connect 14 0 10 0;
#X connect 16 0 0 0;
#X connect 17 0 1 0;
