#N canvas 332 574 1540 726 10;
#X obj 304 186 r notesIn-\$1;
#X obj 304 491 s notesOut-\$1;
#X obj 396 272 r loadbang-\$1;
#X obj 25 186 inlet~ inL-\$1;
#X obj 135 186 inlet~ inR-\$1;
#X obj 27 491 outlet~ outL-\$1;
#X obj 136 491 outlet~ outR-\$1;
#X obj 424 185 r auxIn-\$1;
#X obj 543 257 r knob1-\$1;
#X obj 538 425 r activePage-\$1;
#X obj 649 182 r enc-\$1;
#X obj 658 350 r knob4-\$1;
#X obj 537 350 r knob3-\$1;
#X obj 664 257 r knob2-\$1;
#X obj 660 425 r activeModule;
#X obj 660 447 route \$1;
#X obj 649 203 s enc;
#X obj 537 394 s knob3;
#X obj 658 394 s knob4;
#X obj 661 326 s knob2;
#X obj 540 326 s knob1;
#X obj 424 206 s aux;
#X obj 304 208 s notes;
#X obj 552 203 s encbut;
#X obj 552 182 r encbut-\$1;
#X msg 538 447 enablemenu 0;
#X obj 538 469 s rackMsgs;
#X obj 543 301 unpack s f;
#X obj 664 301 unpack s f;
#X obj 658 372 unpack s f;
#X obj 537 372 unpack s f;
#X obj 29 432 catch~ outL;
#X obj 127 431 catch~ outR;
#X obj 30 231 s~ inL;
#X obj 136 233 s~ inR;
#X obj 316 306 main \$1;
#X obj 394 302 bng 15 250 50 0 empty empty empty 17 7 0 10 -262144
-1 -1;
#X msg 394 322 0.5;
#X connect 0 0 22 0;
#X connect 2 0 36 0;
#X connect 3 0 33 0;
#X connect 4 0 34 0;
#X connect 7 0 21 0;
#X connect 8 0 27 0;
#X connect 9 0 25 0;
#X connect 10 0 16 0;
#X connect 11 0 29 0;
#X connect 12 0 30 0;
#X connect 13 0 28 0;
#X connect 14 0 15 0;
#X connect 24 0 23 0;
#X connect 25 0 26 0;
#X connect 27 1 20 0;
#X connect 28 1 19 0;
#X connect 29 1 18 0;
#X connect 30 1 17 0;
#X connect 31 0 5 0;
#X connect 32 0 6 0;
#X connect 36 0 37 0;
#X connect 37 0 17 0;
#X connect 37 0 18 0;
#X connect 37 0 20 0;
#X connect 37 0 19 0;
